<svg xmlns="http://www.w3.org/2000/svg" width="189" height="188" viewBox="0 0 189 188" fill="none"><path d="M19.4501 130.906C19.4501 127.342 22.5151 124.453 26.2939 124.453H83.5639C87.3427 124.453 90.4077 127.342 90.4077 130.906V139.551C90.4077 143.115 87.3427 146.004 83.5639 146.004H19.4448V130.9H19.4553L19.4501 130.906Z" fill="#4B21EE"></path><path d="M46.9453 89.4897C46.9453 85.926 50.0103 83.0371 53.7892 83.0371H176.894C180.673 83.0371 183.738 85.926 183.738 89.4897V103.913H53.7839C50.0051 103.913 46.9401 101.024 46.9401 97.4605V89.4844V89.4949L46.9453 89.4897Z" fill="#4B21EE"></path><path d="M5 48.4526C5 44.8889 8.06502 42 11.8438 42H101.433C105.212 42 108.277 44.8889 108.277 48.4526V56.2916C108.277 59.8552 105.212 62.7441 101.433 62.7441H5V48.4526Z" fill="#4B21EE"></path></svg>