<svg xmlns="http://www.w3.org/2000/svg" width="790" height="160" viewBox="0 0 790 160" fill="none"><path d="M536.494 136.771C536.494 131.288 541.21 126.844 547.023 126.844H635.13C640.943 126.844 645.658 131.288 645.658 136.771V150.071C645.658 155.554 640.943 159.998 635.13 159.998H536.486V136.763H536.502L536.494 136.771Z" fill="white"></path><path d="M578.787 73.0577C578.787 67.5752 583.503 63.1309 589.316 63.1309H778.706C784.519 63.1309 789.235 67.5752 789.235 73.0577V95.2471H589.308C583.495 95.2471 578.779 90.8028 578.779 85.3203V73.0496V73.0658L578.787 73.0577Z" fill="white"></path><path d="M514.268 9.92685C514.268 4.44438 518.983 0 524.796 0H662.624C668.437 0 673.153 4.44438 673.153 9.92685V21.9867C673.153 27.4692 668.437 31.9135 662.624 31.9135H514.268V9.92685Z" fill="white"></path><path d="M0 14.1895H75.68V33.808H20.7508V65.6891H68.5343V85.3076H20.7508V135.055H0V14.1976V14.1895Z" fill="white"></path><path d="M92.6133 90.3886C92.6133 63.7629 113.017 43.6172 140.219 43.6172C167.421 43.6172 187.825 63.7629 187.825 90.3886C187.825 117.014 167.252 137.16 140.219 137.16C113.186 137.16 92.6133 117.014 92.6133 90.3886ZM167.599 90.3886C167.599 74.6224 155.915 62.5382 140.219 62.5382C124.523 62.5382 112.67 74.6224 112.67 90.3886C112.67 106.155 124.531 118.239 140.219 118.239C155.907 118.239 167.599 106.155 167.599 90.3886Z" fill="white"></path><path d="M215.721 45.725H235.252V60.6153C242.228 50.4533 252.515 44.3301 265.062 44.3301H268.203V64.4758H265.062C246.225 64.4758 235.252 75.165 235.252 91.6286V135.067H215.721V45.7331V45.725Z" fill="white"></path><path d="M303.619 107.553V63.5875H288.617V45.7289H297.685C302.214 45.7289 304.661 43.2715 304.661 38.7217V21.5605H323.151V45.7289H345.121V63.5875H323.151V104.398C323.151 112.281 328.028 117.009 336.223 117.009H345.113V135.054H333.429C314.075 135.054 303.603 125.249 303.603 107.553H303.611H303.619Z" fill="white"></path><path d="M367.098 90.3886C367.098 63.7629 387.502 43.6172 414.534 43.6172C441.567 43.6172 462.14 63.7629 462.14 90.5589C462.14 93.0163 461.963 95.6358 461.615 97.9148H388.019C390.99 110.875 401.438 119.455 415.398 119.455C425.693 119.455 434.583 114.906 439.112 108.069H460.727C453.573 125.408 436.141 137.144 415.035 137.144C387.486 137.144 367.082 116.998 367.082 90.3723H367.09L367.098 90.3886ZM388.196 81.808H441.22C438.249 69.5454 427.8 61.3136 414.534 61.3136C401.268 61.3136 391.337 69.367 388.196 81.808Z" fill="white"></path></svg>